<svg id="Layer_1" data-name="Layer 1" xmlns="http://www.w3.org/2000/svg" viewBox="0 0 155 150"><defs><style>.cls-1{fill:none;stroke-width:4px;}.cls-1,.cls-2{stroke:#1d1d1b;stroke-linecap:round;stroke-miterlimit:10;}.cls-2,.cls-3{fill:#1d1d1b;}</style></defs><circle class="cls-1" cx="57.38" cy="88.96" r="53.64"/><circle class="cls-2" cx="70.81" cy="77.93" r="6.21"/><circle class="cls-2" cx="41.92" cy="78.02" r="6.21"/><path class="cls-3" d="M21.12,99.82c3,13.85,14.12,25.21,27.5,29.5,13.82,4.42,28.83,0,39-10.09A39.31,39.31,0,0,0,98.77,98.68,2.56,2.56,0,0,0,97,95.61,2.52,2.52,0,0,0,94,97.36a36,36,0,0,1-23.3,26.85c-12,4.2-25.18.8-34.4-7.84A34.66,34.66,0,0,1,25.94,98.49c-.68-3.14-5.5-1.81-4.82,1.33Z"/><path class="cls-3" d="M94.08,108.38c5,3.52,10,10.06,8.46,16.59-1.29,5.36-7.32,10.3-12.38,6.05-2.78-2.33-4.36-5.88-5.83-9.1a2.52,2.52,0,0,0-3.42-.9,2.57,2.57,0,0,0-.9,3.42c1.66,3.63,3.53,7.47,6.61,10.11s7.49,4,11.55,2.44a15.37,15.37,0,0,0,8.65-9c1.63-4.18,1-8.85-.71-12.89a26.9,26.9,0,0,0-9.5-11.08,2.51,2.51,0,0,0-3.42.9,2.56,2.56,0,0,0,.89,3.42Z"/><path class="cls-3" d="M87.88,46.89a32.92,32.92,0,0,1-6.64-34c.89-2.31-2.6-4.31-4.17-2.44A51.16,51.16,0,0,0,66.65,54.06,48,48,0,0,0,71.17,66.2c1.51,2.84,5.83.31,4.32-2.53a45.82,45.82,0,0,1-1-39.77A43,43,0,0,1,80.6,14l-4.18-2.43a37.87,37.87,0,0,0,7.92,38.87c2.23,2.33,5.76-1.21,3.54-3.54Z"/><path class="cls-3" d="M40.91,46.89a32.89,32.89,0,0,1-6.63-34c.88-2.31-2.61-4.31-4.18-2.44A51.19,51.19,0,0,0,19.69,54.06,48.37,48.37,0,0,0,24.2,66.2c1.52,2.84,5.84.31,4.32-2.53A45.82,45.82,0,0,1,27.47,23.9,43.05,43.05,0,0,1,33.64,14l-4.18-2.43a37.85,37.85,0,0,0,7.92,38.87c2.22,2.33,5.75-1.21,3.53-3.54Z"/><path class="cls-3" d="M117.73,39.32l-1.29,81.42-.37,23c0,3.22,5,3.22,5,0l1.3-81.42.36-23c0-3.22-5-3.22-5,0Z"/><path class="cls-3" d="M119.42,37.6c-6.71,2.41-12.83-2.49-15.85-8.15-3.6-6.78-4.58-15-3.93-22.52a2.5,2.5,0,1,0-5,0c-.76,8.75.67,18.44,5.2,26.09,4.17,7,12.6,12.39,20.91,9.41a2.58,2.58,0,0,0,1.75-3.08,2.53,2.53,0,0,0-3.08-1.75Z"/><path class="cls-3" d="M123.82,39.3l1.51-18.62a2.52,2.52,0,0,0-2.5-2.5,2.55,2.55,0,0,0-2.5,2.5L118.82,39.3a2.52,2.52,0,0,0,2.5,2.5,2.55,2.55,0,0,0,2.5-2.5Z"/><path class="cls-3" d="M119.26,41.72c5.95,3.61,13.49,2.18,18.89-1.81,6.4-4.73,9.16-12,10.06-19.7a89.84,89.84,0,0,0,.23-13.92c-.12-3.21-5.12-3.23-5,0,.26,7,.54,14.33-1.91,21.05a17.34,17.34,0,0,1-11.66,11.09,10.2,10.2,0,0,1-8.09-1c-2.76-1.67-5.28,2.66-2.52,4.32Z"/><path class="cls-3" d="M111.27,101.1a62.19,62.19,0,0,1,16.52-3.94l-2.16-1.24c-.23-.49.09.32.12.43.16.53.06-.35,0,.2,0,.13-.12,1,0,.43,0,.21-.11.42-.17.64s-.09.27,0,0a3.58,3.58,0,0,1-.21.39c-.06.11-.44.6-.11.21,0,.07-.57.58-.37.41s-.4.24-.48.29c.44-.25-.08,0-.22.06a3,3,0,0,1-.43.09c.31,0,.31,0,0,0s-.44,0-.66,0c.6.07-.29-.11-.41-.14-.55-.14.27.21-.21-.09-.1-.06-.79-.57-.4-.22-.16-.15-.32-.3-.47-.46.35.37-.15-.28-.22-.4L120,101.39l4-1L120.9,97.3a12.09,12.09,0,0,0,1.5,9.61l.9-3.42a6.22,6.22,0,0,1-1.19.22,3.84,3.84,0,0,1-1.55-.28l1.11,4.18c-.39.32.67-.3.17-.11.09,0,.77-.18.3-.12a3.76,3.76,0,0,1,.75,0c-.59-.06.64.3.16.07l-.9-3.42a9.64,9.64,0,0,1-.55.86c.21-.28-.37.39-.44.46a9.59,9.59,0,0,1-.75.68c.27-.21-.46.3-.54.34a7.77,7.77,0,0,1-.9.48c.34-.15-.49.18-.59.21-.32.1-.65.17-1,.24s-.33.06-.09,0l-.51,0a2.5,2.5,0,1,0,0,5,11.86,11.86,0,0,0,9.68-5.79,2.54,2.54,0,0,0-.9-3.43,6.7,6.7,0,0,0-7.44.95c-1.55,1.3-.51,3.61,1.1,4.18a8.81,8.81,0,0,0,6.59-.45,2.51,2.51,0,0,0,.9-3.42,7,7,0,0,1-1-5.75,2.53,2.53,0,0,0-3.08-3.08l-4,1a2.53,2.53,0,0,0-1.49,3.67,7.49,7.49,0,0,0,9.83,3c3.55-1.83,4.63-6.42,3-9.85a2.39,2.39,0,0,0-2.16-1.24,66.47,66.47,0,0,0-17.85,4.12,2.57,2.57,0,0,0-1.74,3.08,2.51,2.51,0,0,0,3.07,1.74Z"/><path class="cls-3" d="M123.66,98.77a25,25,0,0,0-12.56,1,2.56,2.56,0,0,0-1.75,3.08,2.52,2.52,0,0,0,3.08,1.74,21.33,21.33,0,0,1,2.73-.79c.4-.09.8-.17,1.2-.23l.4-.06c-.32,0-.34,0-.05,0l.6-.07a23.39,23.39,0,0,1,2.65-.07c.47,0,1,0,1.42.08a4.22,4.22,0,0,1,.61.07c-.62-.18.2,0,.34.06a2.56,2.56,0,0,0,3.07-1.75,2.52,2.52,0,0,0-1.74-3.07Z"/><path class="cls-3" d="M94.84,5.42A88.39,88.39,0,0,0,90.16,19.5,2.5,2.5,0,1,0,95,20.83c.54-2.26,1.16-4.5,1.89-6.71C97.22,13,97.6,12,98,10.88c.2-.55.42-1.11.63-1.66.1-.23.19-.47.29-.7,0-.08.39-.93.24-.58a2.58,2.58,0,0,0-.9-3.42c-1.07-.56-2.88-.39-3.42.9Z"/><path class="cls-3" d="M144.91,9.58a13.18,13.18,0,0,1,1.07,1c.16.18.32.35.46.54l.11.13-.12-.15c0,.07.16.22.21.28a12.8,12.8,0,0,1,.79,1.27c.11.21.22.42.32.63l.15.32c.15.3-.22-.58,0,0a14.09,14.09,0,0,1,.78,2.79c0,.22,0,.48,0-.06a2.09,2.09,0,0,0,0,.35c0,.24,0,.47,0,.71a11.91,11.91,0,0,1,0,1.58l2.5-2.5-3.34.09a2.5,2.5,0,0,0,0,5l3.34-.09a2.56,2.56,0,0,0,2.5-2.5,15.85,15.85,0,0,0-5.26-12.93,2.5,2.5,0,0,0-3.54,3.53Z"/><path class="cls-3" d="M121.06,19.15l-2.59,6a2.5,2.5,0,0,0,2.15,3.76l4.71,0a2.43,2.43,0,0,0,2-1,2.54,2.54,0,0,0,.45-2.18l-1.25-6.11a2.54,2.54,0,0,0-1.15-1.5,2.51,2.51,0,0,0-3.42.9,2.8,2.8,0,0,0-.25,1.93l1.25,6.11L125.33,24l-4.71,0,2.16,3.76,2.6-6a1.85,1.85,0,0,0,.29-.93,1.89,1.89,0,0,0,0-1,2.56,2.56,0,0,0-1.15-1.49,2.5,2.5,0,0,0-1.93-.25,2.4,2.4,0,0,0-1.49,1.15Z"/></svg>
